<svg id="Layer_1" data-name="Layer 1" xmlns="http://www.w3.org/2000/svg" viewBox="0 0 485.5 107.4"><defs><style>.cls-1{fill:#fff;}</style></defs><title>logo</title><path class="cls-1" d="M52.3,26.8H41.4l.6-2.4H79.6L79,26.8H66.9L53.5,106.3l.3.3L92.2,56.1l4.4-29.3h-12l.6-2.4h40.2l-.5,2.4H110.7L98.2,105.9l.3.3,50.4-70.5c2.4-3.3,3.9-5.4,3.9-6.3s-3.4-2.6-10.2-2.6l.5-2.4h21.3l-.6,2.4c-5.1,0-5.6.6-9.8,6.3L82.8,130.9l-2-.6L91.5,61l-.3-.3L37.8,130.9l-2.4-.6Z" transform="translate(-35.4 -24.4)"/><path class="cls-1" d="M151.5,68.5h4c6.5,0,12.8-.6,19.2-3.3l-15.6,48.9c-1,3.2-2.3,7.1-2.3,9.3s1,3.9,3.5,3.9c8,0,14.9-10.2,16.7-12.9l1.8,1.2c-2,3.3-10.8,15.3-22.5,15.3-4.8,0-10.3-2.7-10.3-10,0-2.9,1-5.9,1.9-9l12.7-41H151Zm23.4-27.3c-3.8,0-4.8-3.1-4.8-5.1,0-4.9,4-11.1,8.7-11.1s5.7,3.2,5.7,5.1C184.5,35.1,180.4,41.2,174.9,41.2Z" transform="translate(-35.4 -24.4)"/><path class="cls-1" d="M204.3,70.9h-11l.8-2.4H205L211.5,48A21.7,21.7,0,0,0,225,43.8l-7.8,24.7h17.5l-.7,2.4H216.4l-14.7,46.5a32.6,32.6,0,0,0-1,6.8,4.2,4.2,0,0,0,4.6,4.3c4.8,0,15.5-7.3,22.5-17.7l1.7,1.2c-6.5,8.1-15.9,18.9-27.3,18.9-7.2,0-12.3-2.8-12.3-10.6,0-3,1-6.8,2.4-11Z" transform="translate(-35.4 -24.4)"/><path class="cls-1" d="M252.9,70.9h-9.3l.6-2.4h3.1c6.5,0,12.8-.6,19.2-3.3l-6.1,20.7h.3c6.6-10.9,18-20.7,29.7-20.7,9.6,0,14.1,5.4,14.1,12.2s-14.3,41.5-14.3,45.3,1.1,4.6,3.5,4.6c6.4,0,12.6-10.2,15-13l1.5,1c-3,4.4-10.1,15.6-21,15.6-7.1,0-9.8-4.3-9.8-11.1,0-9.3,14.3-40.9,14.3-47.2,0-3-1.7-5-5.7-5-7.1,0-25.5,11.1-31.5,31.5l-9,30.9h-12Z" transform="translate(-35.4 -24.4)"/><path class="cls-1" d="M372.9,113.8c-3.2,4.4-12.3,18-28.7,18-8.1,0-23.5-6.1-23.5-25.5,0-23.1,21.6-41.1,40.3-41.1,7.5,0,16.4,3.6,16.4,13.1,0,11.5-14.1,20.1-31.1,20.1a29.8,29.8,0,0,1-11.4-2.3,71.5,71.5,0,0,0-2.5,15.8c0,9.9,3.1,17.5,14.1,17.5,12.9,0,22.3-13.3,24.9-16.6ZM358.5,67.6c-13.5,0-19.5,15.5-23,26.3,2.4.7,6.3,2.1,10.8,2.1,16.2,0,21.2-13.1,21.2-19.2S364,67.6,358.5,67.6Z" transform="translate(-35.4 -24.4)"/><path class="cls-1" d="M420.4,65.2c9.3,0,14.4,5.4,14.4,12.2,0,4.6-3.3,7-7.2,7a6,6,0,0,1-6.3-6.3c0-4,2.9-6,5-7.3,0-1.8-1.5-3.2-6.5-3.2s-12.7,2.7-12.7,12.8c0,12.7,20.4,12.3,20.4,31.6,0,9-8.1,19.8-25.4,19.8-13.3,0-17.7-9.7-17.7-15.1s3.2-9,7.7-9a6.5,6.5,0,0,1,6.7,6.3c0,7.5-7.3,5.4-7.3,9.9,0,2.1,2.2,5.5,11.1,5.5s14.1-4.2,14.1-12.4c0-12.6-18.6-15.2-18.6-31.1C398.1,78.1,406.8,65.2,420.4,65.2Z" transform="translate(-35.4 -24.4)"/><path class="cls-1" d="M478.8,65.2c9.3,0,14.4,5.4,14.4,12.2,0,4.6-3.3,7-7.2,7s-6.3-3.1-6.3-6.3,2.8-6,4.9-7.3c0-1.8-1.5-3.2-6.4-3.2s-12.8,2.7-12.8,12.8c0,12.7,20.4,12.3,20.4,31.6,0,9-8.1,19.8-25.3,19.8-13.4,0-17.7-9.7-17.7-15.1s3.1-9,7.6-9a6.6,6.6,0,0,1,6.8,6.3c0,7.5-7.4,5.4-7.4,9.9,0,2.1,2.3,5.5,11.1,5.5S475,125.2,475,117c0-12.6-18.6-15.2-18.6-31.1C456.4,78.1,465.1,65.2,478.8,65.2Z" transform="translate(-35.4 -24.4)"/><path class="cls-1" d="M513,112a8,8,0,0,1,7.9,8.1c0,5.4-3.4,10.8-9.4,10.8s-7.7-3.4-7.7-7.9S507.3,112,513,112Z" transform="translate(-35.4 -24.4)"/></svg>