<?xml version="1.0" standalone="no"?>
<!DOCTYPE svg PUBLIC "-//W3C//DTD SVG 20010904//EN"
 "http://www.w3.org/TR/2001/REC-SVG-20010904/DTD/svg10.dtd">
<svg version="1.0" xmlns="http://www.w3.org/2000/svg"
 width="1000.000000pt" height="1000.000000pt" viewBox="0 0 1000.000000 1000.000000"
 preserveAspectRatio="xMidYMid meet">
<metadata>
Created by potrace 1.11, written by Peter Selinger 2001-2013
</metadata>
<g transform="translate(0.000000,1000.000000) scale(0.100000,-0.100000)"
fill="#000000" stroke="none">
<path d="M10 5000 l0 -5000 4990 0 4990 0 0 5000 0 5000 -4990 0 -4990 0 0
-5000z m3716 2798 c-3 -18 -11 -49 -17 -70 l-10 -38 -359 0 -358 0 -6 -27
c-37 -178 -785 -4688 -779 -4694 7 -7 2241 2917 2276 2978 5 8 65 391 133 851
68 460 127 849 130 865 l6 27 -357 0 c-282 0 -356 3 -352 13 2 6 10 38 17 70
l13 57 1189 0 c983 0 1188 -2 1188 -13 0 -8 -5 -39 -11 -70 l-12 -57 -423 0
c-233 0 -424 -3 -424 -7 0 -5 -165 -1058 -367 -2341 -229 -1459 -363 -2336
-357 -2341 5 -6 590 803 1554 2151 850 1188 1568 2194 1596 2236 69 101 81
142 56 190 -15 29 -31 42 -73 59 -67 26 -218 43 -388 43 l-129 0 8 38 c4 20
11 54 14 75 l7 37 631 0 630 0 -6 -22 c-3 -13 -11 -47 -17 -75 l-12 -53 -85 0
c-175 0 -256 -52 -415 -263 -30 -40 -1007 -1379 -2172 -2977 -2080 -2853
-2118 -2905 -2149 -2903 -46 3 -86 20 -86 38 0 8 140 923 310 2033 171 1109
311 2026 313 2036 1 11 -3 21 -9 23 -6 2 -719 -926 -1584 -2063 -865 -1136
-1579 -2068 -1585 -2071 -13 -4 -122 21 -133 31 -4 5 981 6058 995 6109 4 16
-16 17 -320 17 l-325 0 14 58 c8 31 17 63 19 70 3 9 236 12 1116 12 l1111 0
-6 -32z m4759 -5178 c143 -49 259 -168 301 -309 22 -74 22 -234 -1 -321 -38
-151 -140 -309 -244 -379 -81 -55 -140 -72 -263 -78 -89 -5 -117 -2 -176 16
-188 57 -302 226 -302 448 0 307 181 573 430 633 68 16 193 11 255 -10z"/>
</g>
</svg>
